<svg xmlns="http://www.w3.org/2000/svg" xmlns:xlink="http://www.w3.org/1999/xlink" xml:space="preserve" width="257.5mm" height="297mm" version="1.1" style="shape-rendering:geometricPrecision; text-rendering:geometricPrecision; image-rendering:optimizeQuality; fill-rule:evenodd; clip-rule:evenodd" viewBox="0 0 25750 29700"><g><path fill="currentColor" d="M4850 19266l-3825 0 0 -17227c2438,-85 3973,-129 4600,-129 2511,0 4500,735 5970,2206 1470,1470 2206,3423 2206,5854 0,6199 -2985,9296 -8951,9296zm-764 -14547l0 11751c494,48 1025,72 1599,72 1543,0 2752,-558 3624,-1679 872,-1121 1310,-2688 1310,-4705 0,-3684 -1712,-5524 -5135,-5524 -329,0 -795,28 -1398,85z"/><polygon fill="currentColor" points="21742,26430 20305,22461 13584,22461 14623,19606 14558,19806 19288,19806 17046,12952 18564,8785 25574,26430 "/><path fill="currentColor" d="M17826 435l3307 0 -10782 28878 -3307 0 4243 -11322c1982,-1513 2973,-4055 2973,-7627 0,-171 -4,-340 -11,-506l3577 -9423z"/></g></svg>